<?xml version="1.0" encoding="UTF-8" standalone="no"?>
<!DOCTYPE svg PUBLIC "-//W3C//DTD SVG 1.1//EN"
 "http://www.w3.org/Graphics/SVG/1.1/DTD/svg11.dtd">
<!-- Generated by graphviz version 2.40.1 (20161225.0304)
 -->
<!-- Title: streams Pages: 1 -->
<svg width="966pt" height="332pt"
 viewBox="0.00 0.00 966.49 332.00" xmlns="http://www.w3.org/2000/svg" xmlns:xlink="http://www.w3.org/1999/xlink">
<g id="graph0" class="graph" transform="scale(1 1) rotate(0) translate(4 328)">
<title>streams</title>
<polygon fill="#ffffff" stroke="transparent" points="-4,4 -4,-328 962.4871,-328 962.4871,4 -4,4"/>
<!-- rpc&#45;server -->
<g id="node1" class="node">
<title>rpc&#45;server</title>
<polygon fill="none" stroke="#000000" points="72.6079,-252 .1304,-252 .1304,-216 72.6079,-216 72.6079,-252"/>
<text text-anchor="middle" x="36.3691" y="-229.8" font-family="Times,serif" font-size="14.00" fill="#000000">rpc&#45;server</text>
</g>
<!-- incoming&#45;rpc&#45;requests -->
<g id="node7" class="node">
<title>incoming&#45;rpc&#45;requests</title>
<ellipse fill="none" stroke="#000000" cx="180.3691" cy="-234" rx="89.8445" ry="18"/>
<text text-anchor="middle" x="180.3691" y="-229.8" font-family="Times,serif" font-size="14.00" fill="#000000">incoming&#45;rpc&#45;requests</text>
</g>
<!-- rpc&#45;server&#45;&gt;incoming&#45;rpc&#45;requests -->
<g id="edge1" class="edge">
<title>rpc&#45;server&#45;&gt;incoming&#45;rpc&#45;requests</title>
<path fill="none" stroke="#000000" d="M72.6504,-234C75.1356,-234 77.6208,-234 80.106,-234"/>
<polygon fill="#000000" stroke="#000000" points="80.323,-237.5001 90.323,-234 80.323,-230.5001 80.323,-237.5001"/>
</g>
<!-- authorizer -->
<g id="node2" class="node">
<title>authorizer</title>
<polygon fill="none" stroke="#000000" points="360.6147,-252 288.1236,-252 288.1236,-216 360.6147,-216 360.6147,-252"/>
<text text-anchor="middle" x="324.3691" y="-229.8" font-family="Times,serif" font-size="14.00" fill="#000000">authorizer</text>
</g>
<!-- incoming&#45;send&#45;transfer -->
<g id="node8" class="node">
<title>incoming&#45;send&#45;transfer</title>
<ellipse fill="none" stroke="#000000" cx="471.3691" cy="-234" rx="92.7342" ry="18"/>
<text text-anchor="middle" x="471.3691" y="-229.8" font-family="Times,serif" font-size="14.00" fill="#000000">incoming&#45;send&#45;transfer</text>
</g>
<!-- authorizer&#45;&gt;incoming&#45;send&#45;transfer -->
<g id="edge3" class="edge">
<title>authorizer&#45;&gt;incoming&#45;send&#45;transfer</title>
<path fill="none" stroke="#000000" d="M360.832,-234C363.3215,-234 365.8111,-234 368.3006,-234"/>
<polygon fill="#000000" stroke="#000000" points="368.5353,-237.5001 378.5352,-234 368.5352,-230.5001 368.5353,-237.5001"/>
</g>
<!-- incoming&#45;send&#45;request -->
<g id="node9" class="node">
<title>incoming&#45;send&#45;request</title>
<ellipse fill="none" stroke="#000000" cx="541.3691" cy="-162" rx="91.298" ry="18"/>
<text text-anchor="middle" x="541.3691" y="-157.8" font-family="Times,serif" font-size="14.00" fill="#000000">incoming&#45;send&#45;request</text>
</g>
<!-- authorizer&#45;&gt;incoming&#45;send&#45;request -->
<g id="edge5" class="edge">
<title>authorizer&#45;&gt;incoming&#45;send&#45;request</title>
<path fill="none" stroke="#000000" d="M360.6279,-219.2208C363.575,-218.1038 366.5158,-217.0169 369.3691,-216 405.8391,-203.0024 447.2248,-189.9573 480.26,-179.9454"/>
<polygon fill="#000000" stroke="#000000" points="481.6659,-183.1772 490.2295,-176.9391 479.6448,-176.4753 481.6659,-183.1772"/>
</g>
<!-- incoming&#45;rpc&#45;responses -->
<g id="node10" class="node">
<title>incoming&#45;rpc&#45;responses</title>
<ellipse fill="none" stroke="#000000" cx="324.3691" cy="-18" rx="95.1568" ry="18"/>
<text text-anchor="middle" x="324.3691" y="-13.8" font-family="Times,serif" font-size="14.00" fill="#000000">incoming&#45;rpc&#45;responses</text>
</g>
<!-- authorizer&#45;&gt;incoming&#45;rpc&#45;responses -->
<g id="edge7" class="edge">
<title>authorizer&#45;&gt;incoming&#45;rpc&#45;responses</title>
<path fill="none" stroke="#000000" d="M324.3691,-215.9555C324.3691,-178.3938 324.3691,-91.5541 324.3691,-46.4103"/>
<polygon fill="#000000" stroke="#000000" points="327.8692,-46.145 324.3691,-36.1451 320.8692,-46.1451 327.8692,-46.145"/>
</g>
<!-- incoming&#45;fulfill&#45;condition -->
<g id="node11" class="node">
<title>incoming&#45;fulfill&#45;condition</title>
<ellipse fill="none" stroke="#000000" cx="466.3691" cy="-306" rx="102.4246" ry="18"/>
<text text-anchor="middle" x="466.3691" y="-301.8" font-family="Times,serif" font-size="14.00" fill="#000000">incoming&#45;fulfill&#45;condition</text>
</g>
<!-- authorizer&#45;&gt;incoming&#45;fulfill&#45;condition -->
<g id="edge9" class="edge">
<title>authorizer&#45;&gt;incoming&#45;fulfill&#45;condition</title>
<path fill="none" stroke="#000000" d="M360.0113,-252.0721C379.3358,-261.8704 403.3527,-274.048 423.6717,-284.3506"/>
<polygon fill="#000000" stroke="#000000" points="422.2153,-287.5363 432.7171,-288.937 425.3809,-281.293 422.2153,-287.5363"/>
</g>
<!-- connector -->
<g id="node3" class="node">
<title>connector</title>
<polygon fill="none" stroke="#000000" points="653.0628,-252 581.6755,-252 581.6755,-216 653.0628,-216 653.0628,-252"/>
<text text-anchor="middle" x="617.3691" y="-229.8" font-family="Times,serif" font-size="14.00" fill="#000000">connector</text>
</g>
<!-- outgoing&#45;rpc&#45;requests -->
<g id="node12" class="node">
<title>outgoing&#45;rpc&#45;requests</title>
<ellipse fill="none" stroke="#000000" cx="758.3691" cy="-234" rx="87.9239" ry="18"/>
<text text-anchor="middle" x="758.3691" y="-229.8" font-family="Times,serif" font-size="14.00" fill="#000000">outgoing&#45;rpc&#45;requests</text>
</g>
<!-- connector&#45;&gt;outgoing&#45;rpc&#45;requests -->
<g id="edge11" class="edge">
<title>connector&#45;&gt;outgoing&#45;rpc&#45;requests</title>
<path fill="none" stroke="#000000" d="M653.1699,-234C655.5071,-234 657.8443,-234 660.1815,-234"/>
<polygon fill="#000000" stroke="#000000" points="660.4292,-237.5001 670.4292,-234 660.4291,-230.5001 660.4292,-237.5001"/>
</g>
<!-- http&#45;client -->
<g id="node4" class="node">
<title>http&#45;client</title>
<polygon fill="none" stroke="#000000" points="936.9087,-252 863.8296,-252 863.8296,-216 936.9087,-216 936.9087,-252"/>
<text text-anchor="middle" x="900.3691" y="-229.8" font-family="Times,serif" font-size="14.00" fill="#000000">http&#45;client</text>
</g>
<!-- outgoing&#45;rpc&#45;responses -->
<g id="node13" class="node">
<title>outgoing&#45;rpc&#45;responses</title>
<ellipse fill="none" stroke="#000000" cx="865.3691" cy="-162" rx="93.236" ry="18"/>
<text text-anchor="middle" x="865.3691" y="-157.8" font-family="Times,serif" font-size="14.00" fill="#000000">outgoing&#45;rpc&#45;responses</text>
</g>
<!-- http&#45;client&#45;&gt;outgoing&#45;rpc&#45;responses -->
<g id="edge14" class="edge">
<title>http&#45;client&#45;&gt;outgoing&#45;rpc&#45;responses</title>
<path fill="none" stroke="#000000" d="M891.5372,-215.8314C887.6705,-207.8771 883.0485,-198.369 878.7723,-189.5723"/>
<polygon fill="#000000" stroke="#000000" points="881.8398,-187.8768 874.32,-180.4133 875.5442,-190.9371 881.8398,-187.8768"/>
</g>
<!-- fulfiller -->
<g id="node5" class="node">
<title>fulfiller</title>
<polygon fill="none" stroke="#000000" points="715.3623,-324 657.376,-324 657.376,-288 715.3623,-288 715.3623,-324"/>
<text text-anchor="middle" x="686.3691" y="-301.8" font-family="Times,serif" font-size="14.00" fill="#000000">fulfiller</text>
</g>
<!-- fulfiller&#45;&gt;outgoing&#45;rpc&#45;requests -->
<g id="edge17" class="edge">
<title>fulfiller&#45;&gt;outgoing&#45;rpc&#45;requests</title>
<path fill="none" stroke="#000000" d="M704.5378,-287.8314C713.2159,-279.1533 723.7434,-268.6257 733.1789,-259.1902"/>
<polygon fill="#000000" stroke="#000000" points="735.8595,-261.4594 740.4557,-251.9134 730.9097,-256.5096 735.8595,-261.4594"/>
</g>
<!-- quoter -->
<g id="node6" class="node">
<title>quoter</title>
<polygon fill="none" stroke="#000000" points="652.3691,-108 598.3691,-108 598.3691,-72 652.3691,-72 652.3691,-108"/>
<text text-anchor="middle" x="625.3691" y="-85.8" font-family="Times,serif" font-size="14.00" fill="#000000">quoter</text>
</g>
<!-- quoter&#45;&gt;incoming&#45;rpc&#45;responses -->
<g id="edge16" class="edge">
<title>quoter&#45;&gt;incoming&#45;rpc&#45;responses</title>
<path fill="none" stroke="#000000" d="M598.1265,-83.4835C552.2208,-72.5027 458.1142,-49.9922 393.1549,-34.4537"/>
<polygon fill="#000000" stroke="#000000" points="393.9316,-31.0409 383.3917,-32.1184 392.3031,-37.8488 393.9316,-31.0409"/>
</g>
<!-- quoter&#45;&gt;outgoing&#45;rpc&#45;requests -->
<g id="edge13" class="edge">
<title>quoter&#45;&gt;outgoing&#45;rpc&#45;requests</title>
<path fill="none" stroke="#000000" d="M642.1537,-108.1727C665.5643,-133.5196 708.1334,-179.6094 734.7412,-208.4179"/>
<polygon fill="#000000" stroke="#000000" points="732.4374,-211.0821 741.7935,-216.0535 737.5797,-206.3326 732.4374,-211.0821"/>
</g>
<!-- incoming&#45;rpc&#45;requests&#45;&gt;authorizer -->
<g id="edge2" class="edge">
<title>incoming&#45;rpc&#45;requests&#45;&gt;authorizer</title>
<path fill="none" stroke="#000000" d="M270.0879,-234C272.6853,-234 275.2828,-234 277.8802,-234"/>
<polygon fill="#000000" stroke="#000000" points="277.899,-237.5001 287.8989,-234 277.8989,-230.5001 277.899,-237.5001"/>
</g>
<!-- incoming&#45;send&#45;transfer&#45;&gt;connector -->
<g id="edge4" class="edge">
<title>incoming&#45;send&#45;transfer&#45;&gt;connector</title>
<path fill="none" stroke="#000000" d="M564.0449,-234C566.5054,-234 568.966,-234 571.4265,-234"/>
<polygon fill="#000000" stroke="#000000" points="571.542,-237.5001 581.5419,-234 571.5419,-230.5001 571.542,-237.5001"/>
</g>
<!-- incoming&#45;send&#45;request&#45;&gt;quoter -->
<g id="edge6" class="edge">
<title>incoming&#45;send&#45;request&#45;&gt;quoter</title>
<path fill="none" stroke="#000000" d="M562.1332,-144.2022C572.4542,-135.3557 585.0969,-124.5191 596.3579,-114.8668"/>
<polygon fill="#000000" stroke="#000000" points="598.9457,-117.2585 604.2605,-108.0931 594.3901,-111.9437 598.9457,-117.2585"/>
</g>
<!-- incoming&#45;rpc&#45;responses&#45;&gt;rpc&#45;server -->
<g id="edge8" class="edge">
<title>incoming&#45;rpc&#45;responses&#45;&gt;rpc&#45;server</title>
<path fill="none" stroke="#000000" d="M300.983,-35.5396C249.6715,-74.0232 127.1355,-165.9252 68.5865,-209.837"/>
<polygon fill="#000000" stroke="#000000" points="66.3285,-207.1554 60.4285,-215.9555 70.5285,-212.7554 66.3285,-207.1554"/>
</g>
<!-- incoming&#45;fulfill&#45;condition&#45;&gt;fulfiller -->
<g id="edge10" class="edge">
<title>incoming&#45;fulfill&#45;condition&#45;&gt;fulfiller</title>
<path fill="none" stroke="#000000" d="M569.0645,-306C594.954,-306 620.8435,-306 646.733,-306"/>
<polygon fill="#000000" stroke="#000000" points="647.043,-309.5001 657.043,-306 647.0429,-302.5001 647.043,-309.5001"/>
</g>
<!-- outgoing&#45;rpc&#45;requests&#45;&gt;http&#45;client -->
<g id="edge12" class="edge">
<title>outgoing&#45;rpc&#45;requests&#45;&gt;http&#45;client</title>
<path fill="none" stroke="#000000" d="M846.2871,-234C848.7232,-234 851.1592,-234 853.5953,-234"/>
<polygon fill="#000000" stroke="#000000" points="853.6103,-237.5001 863.6103,-234 853.6102,-230.5001 853.6103,-237.5001"/>
</g>
<!-- outgoing&#45;rpc&#45;responses&#45;&gt;quoter -->
<g id="edge15" class="edge">
<title>outgoing&#45;rpc&#45;responses&#45;&gt;quoter</title>
<path fill="none" stroke="#000000" d="M814.7646,-146.8186C769.1232,-133.1262 703.0753,-113.3118 662.2521,-101.0649"/>
<polygon fill="#000000" stroke="#000000" points="663.0286,-97.6438 652.4446,-98.1226 661.0171,-104.3486 663.0286,-97.6438"/>
</g>
</g>
</svg>
