<?xml version="1.0" encoding="UTF-8" standalone="no"?>
<!DOCTYPE svg PUBLIC "-//W3C//DTD SVG 1.1//EN"
 "http://www.w3.org/Graphics/SVG/1.1/DTD/svg11.dtd">
<!-- Generated by graphviz version 2.40.1 (20161225.0304)
 -->
<!-- Title: streams Pages: 1 -->
<svg width="1305pt" height="332pt"
 viewBox="0.00 0.00 1305.14 332.00" xmlns="http://www.w3.org/2000/svg" xmlns:xlink="http://www.w3.org/1999/xlink">
<g id="graph0" class="graph" transform="scale(1 1) rotate(0) translate(4 328)">
<title>streams</title>
<polygon fill="#ffffff" stroke="transparent" points="-4,4 -4,-328 1301.1382,-328 1301.1382,4 -4,4"/>
<!-- rpc&#45;server -->
<g id="node1" class="node">
<title>rpc&#45;server</title>
<polygon fill="none" stroke="#000000" points="72.6079,-252 .1304,-252 .1304,-216 72.6079,-216 72.6079,-252"/>
<text text-anchor="middle" x="36.3691" y="-229.8" font-family="Times,serif" font-size="14.00" fill="#000000">rpc&#45;server</text>
</g>
<!-- incoming&#45;rpc&#45;requests -->
<g id="node8" class="node">
<title>incoming&#45;rpc&#45;requests</title>
<ellipse fill="none" stroke="#000000" cx="180.3691" cy="-234" rx="89.8445" ry="18"/>
<text text-anchor="middle" x="180.3691" y="-229.8" font-family="Times,serif" font-size="14.00" fill="#000000">incoming&#45;rpc&#45;requests</text>
</g>
<!-- rpc&#45;server&#45;&gt;incoming&#45;rpc&#45;requests -->
<g id="edge1" class="edge">
<title>rpc&#45;server&#45;&gt;incoming&#45;rpc&#45;requests</title>
<path fill="none" stroke="#000000" d="M72.6504,-234C75.1356,-234 77.6208,-234 80.106,-234"/>
<polygon fill="#000000" stroke="#000000" points="80.323,-237.5001 90.323,-234 80.323,-230.5001 80.323,-237.5001"/>
</g>
<!-- authorizer -->
<g id="node2" class="node">
<title>authorizer</title>
<polygon fill="none" stroke="#000000" points="360.6147,-252 288.1236,-252 288.1236,-216 360.6147,-216 360.6147,-252"/>
<text text-anchor="middle" x="324.3691" y="-229.8" font-family="Times,serif" font-size="14.00" fill="#000000">authorizer</text>
</g>
<!-- incoming&#45;authorized&#45;send&#45;transfer -->
<g id="node9" class="node">
<title>incoming&#45;authorized&#45;send&#45;transfer</title>
<ellipse fill="none" stroke="#000000" cx="511.3691" cy="-234" rx="132.7667" ry="18"/>
<text text-anchor="middle" x="511.3691" y="-229.8" font-family="Times,serif" font-size="14.00" fill="#000000">incoming&#45;authorized&#45;send&#45;transfer</text>
</g>
<!-- authorizer&#45;&gt;incoming&#45;authorized&#45;send&#45;transfer -->
<g id="edge3" class="edge">
<title>authorizer&#45;&gt;incoming&#45;authorized&#45;send&#45;transfer</title>
<path fill="none" stroke="#000000" d="M360.8926,-234C363.331,-234 365.7695,-234 368.2079,-234"/>
<polygon fill="#000000" stroke="#000000" points="368.2327,-237.5001 378.2327,-234 368.2326,-230.5001 368.2327,-237.5001"/>
</g>
<!-- incoming&#45;fulfill&#45;condition -->
<g id="node11" class="node">
<title>incoming&#45;fulfill&#45;condition</title>
<ellipse fill="none" stroke="#000000" cx="691.3691" cy="-306" rx="102.4246" ry="18"/>
<text text-anchor="middle" x="691.3691" y="-301.8" font-family="Times,serif" font-size="14.00" fill="#000000">incoming&#45;fulfill&#45;condition</text>
</g>
<!-- authorizer&#45;&gt;incoming&#45;fulfill&#45;condition -->
<g id="edge12" class="edge">
<title>authorizer&#45;&gt;incoming&#45;fulfill&#45;condition</title>
<path fill="none" stroke="#000000" d="M360.9841,-249.3896C363.7978,-250.3431 366.6145,-251.2277 369.3691,-252 443.454,-272.7695 529.5027,-286.6955 593.9998,-295.1961"/>
<polygon fill="#000000" stroke="#000000" points="593.7938,-298.6986 604.161,-296.514 594.6943,-291.7568 593.7938,-298.6986"/>
</g>
<!-- incoming&#45;send&#45;request -->
<g id="node12" class="node">
<title>incoming&#45;send&#45;request</title>
<ellipse fill="none" stroke="#000000" cx="721.3691" cy="-162" rx="91.298" ry="18"/>
<text text-anchor="middle" x="721.3691" y="-157.8" font-family="Times,serif" font-size="14.00" fill="#000000">incoming&#45;send&#45;request</text>
</g>
<!-- authorizer&#45;&gt;incoming&#45;send&#45;request -->
<g id="edge8" class="edge">
<title>authorizer&#45;&gt;incoming&#45;send&#45;request</title>
<path fill="none" stroke="#000000" d="M360.9721,-218.5671C363.7885,-217.6236 366.6092,-216.7531 369.3691,-216 455.3545,-192.5391 556.1216,-178.3771 627.7557,-170.4808"/>
<polygon fill="#000000" stroke="#000000" points="628.5425,-173.9162 638.108,-169.3609 627.7895,-166.9568 628.5425,-173.9162"/>
</g>
<!-- incoming&#45;rpc&#45;responses -->
<g id="node13" class="node">
<title>incoming&#45;rpc&#45;responses</title>
<ellipse fill="none" stroke="#000000" cx="324.3691" cy="-18" rx="95.1568" ry="18"/>
<text text-anchor="middle" x="324.3691" y="-13.8" font-family="Times,serif" font-size="14.00" fill="#000000">incoming&#45;rpc&#45;responses</text>
</g>
<!-- authorizer&#45;&gt;incoming&#45;rpc&#45;responses -->
<g id="edge10" class="edge">
<title>authorizer&#45;&gt;incoming&#45;rpc&#45;responses</title>
<path fill="none" stroke="#000000" d="M324.3691,-215.9555C324.3691,-178.3938 324.3691,-91.5541 324.3691,-46.4103"/>
<polygon fill="#000000" stroke="#000000" points="327.8692,-46.145 324.3691,-36.1451 320.8692,-46.1451 327.8692,-46.145"/>
</g>
<!-- balance -->
<g id="node3" class="node">
<title>balance</title>
<polygon fill="none" stroke="#000000" points="720.6148,-252 662.1235,-252 662.1235,-216 720.6148,-216 720.6148,-252"/>
<text text-anchor="middle" x="691.3691" y="-229.8" font-family="Times,serif" font-size="14.00" fill="#000000">balance</text>
</g>
<!-- incoming&#45;send&#45;transfer -->
<g id="node10" class="node">
<title>incoming&#45;send&#45;transfer</title>
<ellipse fill="none" stroke="#000000" cx="831.3691" cy="-234" rx="92.7342" ry="18"/>
<text text-anchor="middle" x="831.3691" y="-229.8" font-family="Times,serif" font-size="14.00" fill="#000000">incoming&#45;send&#45;transfer</text>
</g>
<!-- balance&#45;&gt;incoming&#45;send&#45;transfer -->
<g id="edge5" class="edge">
<title>balance&#45;&gt;incoming&#45;send&#45;transfer</title>
<path fill="none" stroke="#000000" d="M720.627,-234C723.1211,-234 725.6152,-234 728.1094,-234"/>
<polygon fill="#000000" stroke="#000000" points="728.363,-237.5001 738.363,-234 728.363,-230.5001 728.363,-237.5001"/>
</g>
<!-- connector -->
<g id="node4" class="node">
<title>connector</title>
<polygon fill="none" stroke="#000000" points="1013.0628,-252 941.6755,-252 941.6755,-216 1013.0628,-216 1013.0628,-252"/>
<text text-anchor="middle" x="977.3691" y="-229.8" font-family="Times,serif" font-size="14.00" fill="#000000">connector</text>
</g>
<!-- outgoing&#45;rpc&#45;requests -->
<g id="node14" class="node">
<title>outgoing&#45;rpc&#45;requests</title>
<ellipse fill="none" stroke="#000000" cx="1118.3691" cy="-234" rx="87.9239" ry="18"/>
<text text-anchor="middle" x="1118.3691" y="-229.8" font-family="Times,serif" font-size="14.00" fill="#000000">outgoing&#45;rpc&#45;requests</text>
</g>
<!-- connector&#45;&gt;outgoing&#45;rpc&#45;requests -->
<g id="edge14" class="edge">
<title>connector&#45;&gt;outgoing&#45;rpc&#45;requests</title>
<path fill="none" stroke="#000000" d="M1013.1699,-234C1015.5071,-234 1017.8443,-234 1020.1815,-234"/>
<polygon fill="#000000" stroke="#000000" points="1020.4292,-237.5001 1030.4292,-234 1020.4291,-230.5001 1020.4292,-237.5001"/>
</g>
<!-- http&#45;client -->
<g id="node5" class="node">
<title>http&#45;client</title>
<polygon fill="none" stroke="#000000" points="1296.9087,-252 1223.8296,-252 1223.8296,-216 1296.9087,-216 1296.9087,-252"/>
<text text-anchor="middle" x="1260.3691" y="-229.8" font-family="Times,serif" font-size="14.00" fill="#000000">http&#45;client</text>
</g>
<!-- outgoing&#45;rpc&#45;responses -->
<g id="node15" class="node">
<title>outgoing&#45;rpc&#45;responses</title>
<ellipse fill="none" stroke="#000000" cx="1180.3691" cy="-162" rx="93.236" ry="18"/>
<text text-anchor="middle" x="1180.3691" y="-157.8" font-family="Times,serif" font-size="14.00" fill="#000000">outgoing&#45;rpc&#45;responses</text>
</g>
<!-- http&#45;client&#45;&gt;outgoing&#45;rpc&#45;responses -->
<g id="edge17" class="edge">
<title>http&#45;client&#45;&gt;outgoing&#45;rpc&#45;responses</title>
<path fill="none" stroke="#000000" d="M1240.1818,-215.8314C1230.274,-206.9144 1218.1966,-196.0447 1207.4953,-186.4135"/>
<polygon fill="#000000" stroke="#000000" points="1209.7713,-183.7532 1199.997,-179.665 1205.0885,-188.9563 1209.7713,-183.7532"/>
</g>
<!-- fulfiller -->
<g id="node6" class="node">
<title>fulfiller</title>
<polygon fill="none" stroke="#000000" points="1008.3623,-324 950.376,-324 950.376,-288 1008.3623,-288 1008.3623,-324"/>
<text text-anchor="middle" x="979.3691" y="-301.8" font-family="Times,serif" font-size="14.00" fill="#000000">fulfiller</text>
</g>
<!-- fulfiller&#45;&gt;outgoing&#45;rpc&#45;requests -->
<g id="edge20" class="edge">
<title>fulfiller&#45;&gt;outgoing&#45;rpc&#45;requests</title>
<path fill="none" stroke="#000000" d="M1008.5081,-290.9064C1028.2907,-280.6594 1054.7498,-266.9539 1076.7444,-255.561"/>
<polygon fill="#000000" stroke="#000000" points="1078.5952,-258.5441 1085.8648,-250.8368 1075.3755,-252.3284 1078.5952,-258.5441"/>
</g>
<!-- quoter -->
<g id="node7" class="node">
<title>quoter</title>
<polygon fill="none" stroke="#000000" points="877.3691,-108 823.3691,-108 823.3691,-72 877.3691,-72 877.3691,-108"/>
<text text-anchor="middle" x="850.3691" y="-85.8" font-family="Times,serif" font-size="14.00" fill="#000000">quoter</text>
</g>
<!-- quoter&#45;&gt;incoming&#45;rpc&#45;responses -->
<g id="edge19" class="edge">
<title>quoter&#45;&gt;incoming&#45;rpc&#45;responses</title>
<path fill="none" stroke="#000000" d="M823.1967,-86.2806C747.7946,-75.9594 533.5045,-46.6269 411.7344,-29.9587"/>
<polygon fill="#000000" stroke="#000000" points="412.0714,-26.4723 401.6891,-28.5837 411.1221,-33.4077 412.0714,-26.4723"/>
</g>
<!-- quoter&#45;&gt;outgoing&#45;rpc&#45;requests -->
<g id="edge16" class="edge">
<title>quoter&#45;&gt;outgoing&#45;rpc&#45;requests</title>
<path fill="none" stroke="#000000" d="M877.746,-104.71C925.1718,-130.1925 1022.8163,-182.6582 1078.0277,-212.324"/>
<polygon fill="#000000" stroke="#000000" points="1076.3725,-215.4078 1086.8381,-217.0579 1079.6857,-209.2416 1076.3725,-215.4078"/>
</g>
<!-- incoming&#45;rpc&#45;requests&#45;&gt;authorizer -->
<g id="edge2" class="edge">
<title>incoming&#45;rpc&#45;requests&#45;&gt;authorizer</title>
<path fill="none" stroke="#000000" d="M270.0879,-234C272.6853,-234 275.2828,-234 277.8802,-234"/>
<polygon fill="#000000" stroke="#000000" points="277.899,-237.5001 287.8989,-234 277.8989,-230.5001 277.899,-237.5001"/>
</g>
<!-- incoming&#45;authorized&#45;send&#45;transfer&#45;&gt;balance -->
<g id="edge4" class="edge">
<title>incoming&#45;authorized&#45;send&#45;transfer&#45;&gt;balance</title>
<path fill="none" stroke="#000000" d="M644.2598,-234C646.744,-234 649.2283,-234 651.7126,-234"/>
<polygon fill="#000000" stroke="#000000" points="651.9258,-237.5001 661.9258,-234 651.9257,-230.5001 651.9258,-237.5001"/>
</g>
<!-- incoming&#45;send&#45;transfer&#45;&gt;connector -->
<g id="edge6" class="edge">
<title>incoming&#45;send&#45;transfer&#45;&gt;connector</title>
<path fill="none" stroke="#000000" d="M924.0449,-234C926.5054,-234 928.966,-234 931.4265,-234"/>
<polygon fill="#000000" stroke="#000000" points="931.542,-237.5001 941.5419,-234 931.5419,-230.5001 931.542,-237.5001"/>
</g>
<!-- incoming&#45;fulfill&#45;condition&#45;&gt;balance -->
<g id="edge7" class="edge">
<title>incoming&#45;fulfill&#45;condition&#45;&gt;balance</title>
<path fill="none" stroke="#000000" d="M691.3691,-287.8314C691.3691,-280.131 691.3691,-270.9743 691.3691,-262.4166"/>
<polygon fill="#000000" stroke="#000000" points="694.8692,-262.4132 691.3691,-252.4133 687.8692,-262.4133 694.8692,-262.4132"/>
</g>
<!-- incoming&#45;fulfill&#45;condition&#45;&gt;fulfiller -->
<g id="edge13" class="edge">
<title>incoming&#45;fulfill&#45;condition&#45;&gt;fulfiller</title>
<path fill="none" stroke="#000000" d="M794.0254,-306C842.6806,-306 891.3359,-306 939.9911,-306"/>
<polygon fill="#000000" stroke="#000000" points="940.0472,-309.5001 950.0472,-306 940.0471,-302.5001 940.0472,-309.5001"/>
</g>
<!-- incoming&#45;send&#45;request&#45;&gt;quoter -->
<g id="edge9" class="edge">
<title>incoming&#45;send&#45;request&#45;&gt;quoter</title>
<path fill="none" stroke="#000000" d="M751.9403,-144.937C770.593,-134.5262 794.5379,-121.1616 814.1398,-110.221"/>
<polygon fill="#000000" stroke="#000000" points="816.0618,-113.1566 823.0879,-105.2267 812.6502,-107.0442 816.0618,-113.1566"/>
</g>
<!-- incoming&#45;rpc&#45;responses&#45;&gt;rpc&#45;server -->
<g id="edge11" class="edge">
<title>incoming&#45;rpc&#45;responses&#45;&gt;rpc&#45;server</title>
<path fill="none" stroke="#000000" d="M300.983,-35.5396C249.6715,-74.0232 127.1355,-165.9252 68.5865,-209.837"/>
<polygon fill="#000000" stroke="#000000" points="66.3285,-207.1554 60.4285,-215.9555 70.5285,-212.7554 66.3285,-207.1554"/>
</g>
<!-- outgoing&#45;rpc&#45;requests&#45;&gt;http&#45;client -->
<g id="edge15" class="edge">
<title>outgoing&#45;rpc&#45;requests&#45;&gt;http&#45;client</title>
<path fill="none" stroke="#000000" d="M1206.2871,-234C1208.7232,-234 1211.1592,-234 1213.5953,-234"/>
<polygon fill="#000000" stroke="#000000" points="1213.6103,-237.5001 1223.6103,-234 1213.6102,-230.5001 1213.6103,-237.5001"/>
</g>
<!-- outgoing&#45;rpc&#45;responses&#45;&gt;quoter -->
<g id="edge18" class="edge">
<title>outgoing&#45;rpc&#45;responses&#45;&gt;quoter</title>
<path fill="none" stroke="#000000" d="M1118.2987,-148.4574C1050.2775,-133.6164 943.3986,-110.2973 887.4033,-98.0802"/>
<polygon fill="#000000" stroke="#000000" points="888.077,-94.6449 877.5607,-95.9327 886.5848,-101.484 888.077,-94.6449"/>
</g>
</g>
</svg>
