<?xml version="1.0" encoding="UTF-8" standalone="no"?>
<!DOCTYPE svg PUBLIC "-//W3C//DTD SVG 1.1//EN"
 "http://www.w3.org/Graphics/SVG/1.1/DTD/svg11.dtd">
<!-- Generated by graphviz version 2.40.1 (20161225.0304)
 -->
<!-- Title: streams Pages: 1 -->
<svg width="757pt" height="332pt"
 viewBox="0.00 0.00 756.58 332.00" xmlns="http://www.w3.org/2000/svg" xmlns:xlink="http://www.w3.org/1999/xlink">
<g id="graph0" class="graph" transform="scale(1 1) rotate(0) translate(4 328)">
<title>streams</title>
<polygon fill="#ffffff" stroke="transparent" points="-4,4 -4,-328 752.5803,-328 752.5803,4 -4,4"/>
<!-- rpc&#45;server -->
<g id="node1" class="node">
<title>rpc&#45;server</title>
<polygon fill="none" stroke="#000000" points="138.7011,-252 66.2236,-252 66.2236,-216 138.7011,-216 138.7011,-252"/>
<text text-anchor="middle" x="102.4623" y="-229.8" font-family="Times,serif" font-size="14.00" fill="#000000">rpc&#45;server</text>
</g>
<!-- incoming&#45;send&#45;transfer -->
<g id="node6" class="node">
<title>incoming&#45;send&#45;transfer</title>
<ellipse fill="none" stroke="#000000" cx="249.4623" cy="-234" rx="92.7342" ry="18"/>
<text text-anchor="middle" x="249.4623" y="-229.8" font-family="Times,serif" font-size="14.00" fill="#000000">incoming&#45;send&#45;transfer</text>
</g>
<!-- rpc&#45;server&#45;&gt;incoming&#45;send&#45;transfer -->
<g id="edge1" class="edge">
<title>rpc&#45;server&#45;&gt;incoming&#45;send&#45;transfer</title>
<path fill="none" stroke="#000000" d="M138.9252,-234C141.4147,-234 143.9042,-234 146.3937,-234"/>
<polygon fill="#000000" stroke="#000000" points="146.6284,-237.5001 156.6284,-234 146.6284,-230.5001 146.6284,-237.5001"/>
</g>
<!-- incoming&#45;send&#45;request -->
<g id="node7" class="node">
<title>incoming&#45;send&#45;request</title>
<ellipse fill="none" stroke="#000000" cx="368.4623" cy="-162" rx="91.298" ry="18"/>
<text text-anchor="middle" x="368.4623" y="-157.8" font-family="Times,serif" font-size="14.00" fill="#000000">incoming&#45;send&#45;request</text>
</g>
<!-- rpc&#45;server&#45;&gt;incoming&#45;send&#45;request -->
<g id="edge3" class="edge">
<title>rpc&#45;server&#45;&gt;incoming&#45;send&#45;request</title>
<path fill="none" stroke="#000000" d="M139.1454,-218.8376C141.9434,-217.8315 144.7379,-216.8729 147.4623,-216 195.9665,-200.4587 251.6821,-186.8724 295.0363,-177.2151"/>
<polygon fill="#000000" stroke="#000000" points="295.9226,-180.6038 304.9332,-175.0308 294.4139,-173.7683 295.9226,-180.6038"/>
</g>
<!-- incoming&#45;fulfill&#45;condition -->
<g id="node8" class="node">
<title>incoming&#45;fulfill&#45;condition</title>
<ellipse fill="none" stroke="#000000" cx="102.4623" cy="-306" rx="102.4246" ry="18"/>
<text text-anchor="middle" x="102.4623" y="-301.8" font-family="Times,serif" font-size="14.00" fill="#000000">incoming&#45;fulfill&#45;condition</text>
</g>
<!-- rpc&#45;server&#45;&gt;incoming&#45;fulfill&#45;condition -->
<g id="edge5" class="edge">
<title>rpc&#45;server&#45;&gt;incoming&#45;fulfill&#45;condition</title>
<path fill="none" stroke="#000000" d="M102.4623,-252.4133C102.4623,-260.0593 102.4623,-269.1084 102.4623,-277.5726"/>
<polygon fill="#000000" stroke="#000000" points="98.9624,-277.8313 102.4623,-287.8314 105.9624,-277.8314 98.9624,-277.8313"/>
</g>
<!-- connector -->
<g id="node2" class="node">
<title>connector</title>
<polygon fill="none" stroke="#000000" points="431.1559,-252 359.7687,-252 359.7687,-216 431.1559,-216 431.1559,-252"/>
<text text-anchor="middle" x="395.4623" y="-229.8" font-family="Times,serif" font-size="14.00" fill="#000000">connector</text>
</g>
<!-- outgoing&#45;rpc&#45;requests -->
<g id="node10" class="node">
<title>outgoing&#45;rpc&#45;requests</title>
<ellipse fill="none" stroke="#000000" cx="536.4623" cy="-234" rx="87.9239" ry="18"/>
<text text-anchor="middle" x="536.4623" y="-229.8" font-family="Times,serif" font-size="14.00" fill="#000000">outgoing&#45;rpc&#45;requests</text>
</g>
<!-- connector&#45;&gt;outgoing&#45;rpc&#45;requests -->
<g id="edge9" class="edge">
<title>connector&#45;&gt;outgoing&#45;rpc&#45;requests</title>
<path fill="none" stroke="#000000" d="M431.2631,-234C433.6003,-234 435.9375,-234 438.2747,-234"/>
<polygon fill="#000000" stroke="#000000" points="438.5224,-237.5001 448.5223,-234 438.5223,-230.5001 438.5224,-237.5001"/>
</g>
<!-- http&#45;client -->
<g id="node3" class="node">
<title>http&#45;client</title>
<polygon fill="none" stroke="#000000" points="715.0018,-252 641.9228,-252 641.9228,-216 715.0018,-216 715.0018,-252"/>
<text text-anchor="middle" x="678.4623" y="-229.8" font-family="Times,serif" font-size="14.00" fill="#000000">http&#45;client</text>
</g>
<!-- outgoing&#45;rpc&#45;responses -->
<g id="node11" class="node">
<title>outgoing&#45;rpc&#45;responses</title>
<ellipse fill="none" stroke="#000000" cx="655.4623" cy="-162" rx="93.236" ry="18"/>
<text text-anchor="middle" x="655.4623" y="-157.8" font-family="Times,serif" font-size="14.00" fill="#000000">outgoing&#45;rpc&#45;responses</text>
</g>
<!-- http&#45;client&#45;&gt;outgoing&#45;rpc&#45;responses -->
<g id="edge12" class="edge">
<title>http&#45;client&#45;&gt;outgoing&#45;rpc&#45;responses</title>
<path fill="none" stroke="#000000" d="M672.6584,-215.8314C670.1716,-208.0463 667.2092,-198.7729 664.4498,-190.1347"/>
<polygon fill="#000000" stroke="#000000" points="667.7214,-188.874 661.3443,-180.4133 661.0533,-191.0041 667.7214,-188.874"/>
</g>
<!-- fulfiller -->
<g id="node4" class="node">
<title>fulfiller</title>
<polygon fill="none" stroke="#000000" points="280.4555,-324 222.4692,-324 222.4692,-288 280.4555,-288 280.4555,-324"/>
<text text-anchor="middle" x="251.4623" y="-301.8" font-family="Times,serif" font-size="14.00" fill="#000000">fulfiller</text>
</g>
<!-- fulfiller&#45;&gt;outgoing&#45;rpc&#45;requests -->
<g id="edge15" class="edge">
<title>fulfiller&#45;&gt;outgoing&#45;rpc&#45;requests</title>
<path fill="none" stroke="#000000" d="M280.623,-298.6331C325.1725,-287.3785 411.3121,-265.6169 471.2683,-250.4701"/>
<polygon fill="#000000" stroke="#000000" points="472.1884,-253.8477 481.0264,-248.0049 470.4737,-247.0609 472.1884,-253.8477"/>
</g>
<!-- quoter -->
<g id="node5" class="node">
<title>quoter</title>
<polygon fill="none" stroke="#000000" points="466.4623,-108 412.4623,-108 412.4623,-72 466.4623,-72 466.4623,-108"/>
<text text-anchor="middle" x="439.4623" y="-85.8" font-family="Times,serif" font-size="14.00" fill="#000000">quoter</text>
</g>
<!-- incoming&#45;rpc&#45;responses -->
<g id="node9" class="node">
<title>incoming&#45;rpc&#45;responses</title>
<ellipse fill="none" stroke="#000000" cx="259.4623" cy="-18" rx="95.1568" ry="18"/>
<text text-anchor="middle" x="259.4623" y="-13.8" font-family="Times,serif" font-size="14.00" fill="#000000">incoming&#45;rpc&#45;responses</text>
</g>
<!-- quoter&#45;&gt;incoming&#45;rpc&#45;responses -->
<g id="edge14" class="edge">
<title>quoter&#45;&gt;incoming&#45;rpc&#45;responses</title>
<path fill="none" stroke="#000000" d="M412.1242,-79.0647C385.0914,-68.2516 343.0854,-51.4492 309.9739,-38.2046"/>
<polygon fill="#000000" stroke="#000000" points="311.036,-34.8599 300.4513,-34.3956 308.4362,-41.3593 311.036,-34.8599"/>
</g>
<!-- quoter&#45;&gt;outgoing&#45;rpc&#45;requests -->
<g id="edge11" class="edge">
<title>quoter&#45;&gt;outgoing&#45;rpc&#45;requests</title>
<path fill="none" stroke="#000000" d="M451.7037,-108.1727C468.6317,-133.3029 499.2945,-178.8231 518.7298,-207.6754"/>
<polygon fill="#000000" stroke="#000000" points="515.8836,-209.715 524.3733,-216.0535 521.6893,-205.8042 515.8836,-209.715"/>
</g>
<!-- incoming&#45;send&#45;transfer&#45;&gt;connector -->
<g id="edge2" class="edge">
<title>incoming&#45;send&#45;transfer&#45;&gt;connector</title>
<path fill="none" stroke="#000000" d="M342.1381,-234C344.5986,-234 347.0591,-234 349.5196,-234"/>
<polygon fill="#000000" stroke="#000000" points="349.6351,-237.5001 359.6351,-234 349.6351,-230.5001 349.6351,-237.5001"/>
</g>
<!-- incoming&#45;send&#45;transfer&#45;&gt;fulfiller -->
<g id="edge8" class="edge">
<title>incoming&#45;send&#45;transfer&#45;&gt;fulfiller</title>
<path fill="none" stroke="#000000" d="M249.9738,-252.4133C250.1862,-260.0593 250.4375,-269.1084 250.6727,-277.5726"/>
<polygon fill="#000000" stroke="#000000" points="247.1812,-277.9324 250.9576,-287.8314 254.1785,-277.738 247.1812,-277.9324"/>
</g>
<!-- incoming&#45;send&#45;request&#45;&gt;quoter -->
<g id="edge4" class="edge">
<title>incoming&#45;send&#45;request&#45;&gt;quoter</title>
<path fill="none" stroke="#000000" d="M386.0129,-144.2022C394.5672,-135.5275 405.0084,-124.9391 414.3852,-115.4304"/>
<polygon fill="#000000" stroke="#000000" points="417.0911,-117.671 421.6205,-108.0931 412.1069,-112.756 417.0911,-117.671"/>
</g>
<!-- incoming&#45;fulfill&#45;condition&#45;&gt;fulfiller -->
<g id="edge6" class="edge">
<title>incoming&#45;fulfill&#45;condition&#45;&gt;fulfiller</title>
<path fill="none" stroke="#000000" d="M205.1908,-306C207.4916,-306 209.7924,-306 212.0931,-306"/>
<polygon fill="#000000" stroke="#000000" points="212.1812,-309.5001 222.1811,-306 212.1811,-302.5001 212.1812,-309.5001"/>
</g>
<!-- incoming&#45;rpc&#45;responses&#45;&gt;rpc&#45;server -->
<g id="edge7" class="edge">
<title>incoming&#45;rpc&#45;responses&#45;&gt;rpc&#45;server</title>
<path fill="none" stroke="#000000" d="M246.4944,-35.8413C218.8514,-73.8723 154.0148,-163.0743 121.6066,-207.6613"/>
<polygon fill="#000000" stroke="#000000" points="118.6264,-205.8086 115.578,-215.9555 124.2887,-209.9243 118.6264,-205.8086"/>
</g>
<!-- outgoing&#45;rpc&#45;requests&#45;&gt;http&#45;client -->
<g id="edge10" class="edge">
<title>outgoing&#45;rpc&#45;requests&#45;&gt;http&#45;client</title>
<path fill="none" stroke="#000000" d="M624.3803,-234C626.8164,-234 629.2524,-234 631.6885,-234"/>
<polygon fill="#000000" stroke="#000000" points="631.7035,-237.5001 641.7034,-234 631.7034,-230.5001 631.7035,-237.5001"/>
</g>
<!-- outgoing&#45;rpc&#45;responses&#45;&gt;quoter -->
<g id="edge13" class="edge">
<title>outgoing&#45;rpc&#45;responses&#45;&gt;quoter</title>
<path fill="none" stroke="#000000" d="M608.5935,-146.3771C568.8986,-133.1454 512.7756,-114.4378 476.2529,-102.2635"/>
<polygon fill="#000000" stroke="#000000" points="477.0949,-98.8549 466.5013,-99.013 474.8813,-105.4957 477.0949,-98.8549"/>
</g>
</g>
</svg>
