<?xml version="1.0" encoding="UTF-8" standalone="no"?>
<!DOCTYPE svg PUBLIC "-//W3C//DTD SVG 1.1//EN"
 "http://www.w3.org/Graphics/SVG/1.1/DTD/svg11.dtd">
<!-- Generated by graphviz version 2.40.1 (20161225.0304)
 -->
<!-- Title: streams Pages: 1 -->
<svg width="846pt" height="433pt"
 viewBox="0.00 0.00 845.58 432.64" xmlns="http://www.w3.org/2000/svg" xmlns:xlink="http://www.w3.org/1999/xlink">
<g id="graph0" class="graph" transform="scale(1 1) rotate(0) translate(4 428.6379)">
<title>streams</title>
<polygon fill="#ffffff" stroke="transparent" points="-4,4 -4,-428.6379 841.5803,-428.6379 841.5803,4 -4,4"/>
<!-- rpc&#45;server -->
<g id="node1" class="node">
<title>rpc&#45;server</title>
<polygon fill="none" stroke="#000000" points="227.7011,-252 155.2236,-252 155.2236,-216 227.7011,-216 227.7011,-252"/>
<text text-anchor="middle" x="191.4623" y="-229.8" font-family="Times,serif" font-size="14.00" fill="#000000">rpc&#45;server</text>
</g>
<!-- incoming&#45;send&#45;transfer -->
<g id="node7" class="node">
<title>incoming&#45;send&#45;transfer</title>
<ellipse fill="none" stroke="#000000" cx="338.4623" cy="-234" rx="92.7342" ry="18"/>
<text text-anchor="middle" x="338.4623" y="-229.8" font-family="Times,serif" font-size="14.00" fill="#000000">incoming&#45;send&#45;transfer</text>
</g>
<!-- rpc&#45;server&#45;&gt;incoming&#45;send&#45;transfer -->
<g id="edge1" class="edge">
<title>rpc&#45;server&#45;&gt;incoming&#45;send&#45;transfer</title>
<path fill="none" stroke="#000000" d="M227.9252,-234C230.4147,-234 232.9042,-234 235.3937,-234"/>
<polygon fill="#000000" stroke="#000000" points="235.6284,-237.5001 245.6284,-234 235.6284,-230.5001 235.6284,-237.5001"/>
</g>
<!-- incoming&#45;send&#45;request -->
<g id="node8" class="node">
<title>incoming&#45;send&#45;request</title>
<ellipse fill="none" stroke="#000000" cx="457.4623" cy="-162" rx="91.298" ry="18"/>
<text text-anchor="middle" x="457.4623" y="-157.8" font-family="Times,serif" font-size="14.00" fill="#000000">incoming&#45;send&#45;request</text>
</g>
<!-- rpc&#45;server&#45;&gt;incoming&#45;send&#45;request -->
<g id="edge3" class="edge">
<title>rpc&#45;server&#45;&gt;incoming&#45;send&#45;request</title>
<path fill="none" stroke="#000000" d="M228.1454,-218.8376C230.9434,-217.8315 233.7379,-216.8729 236.4623,-216 284.9665,-200.4587 340.6821,-186.8724 384.0363,-177.2151"/>
<polygon fill="#000000" stroke="#000000" points="384.9226,-180.6038 393.9332,-175.0308 383.4139,-173.7683 384.9226,-180.6038"/>
</g>
<!-- incoming&#45;fulfill&#45;condition -->
<g id="node9" class="node">
<title>incoming&#45;fulfill&#45;condition</title>
<ellipse fill="none" stroke="#000000" cx="102.4623" cy="-378" rx="102.4246" ry="18"/>
<text text-anchor="middle" x="102.4623" y="-373.8" font-family="Times,serif" font-size="14.00" fill="#000000">incoming&#45;fulfill&#45;condition</text>
</g>
<!-- rpc&#45;server&#45;&gt;incoming&#45;fulfill&#45;condition -->
<g id="edge5" class="edge">
<title>rpc&#45;server&#45;&gt;incoming&#45;fulfill&#45;condition</title>
<path fill="none" stroke="#000000" d="M180.2306,-252.1727C164.7656,-277.1946 136.807,-322.431 118.9635,-351.3014"/>
<polygon fill="#000000" stroke="#000000" points="115.8345,-349.7069 113.5543,-360.0535 121.789,-353.3871 115.8345,-349.7069"/>
</g>
<!-- incoming&#45;reject&#45;incoming&#45;transfer -->
<g id="node10" class="node">
<title>incoming&#45;reject&#45;incoming&#45;transfer</title>
<ellipse fill="none" stroke="#000000" cx="355.4623" cy="-378" rx="132.2822" ry="18"/>
<text text-anchor="middle" x="355.4623" y="-373.8" font-family="Times,serif" font-size="14.00" fill="#000000">incoming&#45;reject&#45;incoming&#45;transfer</text>
</g>
<!-- rpc&#45;server&#45;&gt;incoming&#45;reject&#45;incoming&#45;transfer -->
<g id="edge7" class="edge">
<title>rpc&#45;server&#45;&gt;incoming&#45;reject&#45;incoming&#45;transfer</title>
<path fill="none" stroke="#000000" d="M212.159,-252.1727C241.273,-277.7362 294.4165,-324.3988 327.164,-353.1527"/>
<polygon fill="#000000" stroke="#000000" points="325.1995,-356.0855 335.0232,-360.0535 329.8181,-350.8254 325.1995,-356.0855"/>
</g>
<!-- connector -->
<g id="node2" class="node">
<title>connector</title>
<polygon fill="none" stroke="#000000" points="520.1559,-252 448.7687,-252 448.7687,-216 520.1559,-216 520.1559,-252"/>
<text text-anchor="middle" x="484.4623" y="-229.8" font-family="Times,serif" font-size="14.00" fill="#000000">connector</text>
</g>
<!-- outgoing&#45;rpc&#45;requests -->
<g id="node12" class="node">
<title>outgoing&#45;rpc&#45;requests</title>
<ellipse fill="none" stroke="#000000" cx="625.4623" cy="-234" rx="87.9239" ry="18"/>
<text text-anchor="middle" x="625.4623" y="-229.8" font-family="Times,serif" font-size="14.00" fill="#000000">outgoing&#45;rpc&#45;requests</text>
</g>
<!-- connector&#45;&gt;outgoing&#45;rpc&#45;requests -->
<g id="edge11" class="edge">
<title>connector&#45;&gt;outgoing&#45;rpc&#45;requests</title>
<path fill="none" stroke="#000000" d="M520.2631,-234C522.6003,-234 524.9375,-234 527.2747,-234"/>
<polygon fill="#000000" stroke="#000000" points="527.5224,-237.5001 537.5223,-234 527.5223,-230.5001 527.5224,-237.5001"/>
</g>
<!-- http&#45;client -->
<g id="node3" class="node">
<title>http&#45;client</title>
<polygon fill="none" stroke="#000000" points="804.0018,-252 730.9228,-252 730.9228,-216 804.0018,-216 804.0018,-252"/>
<text text-anchor="middle" x="767.4623" y="-229.8" font-family="Times,serif" font-size="14.00" fill="#000000">http&#45;client</text>
</g>
<!-- outgoing&#45;rpc&#45;responses -->
<g id="node13" class="node">
<title>outgoing&#45;rpc&#45;responses</title>
<ellipse fill="none" stroke="#000000" cx="744.4623" cy="-162" rx="93.236" ry="18"/>
<text text-anchor="middle" x="744.4623" y="-157.8" font-family="Times,serif" font-size="14.00" fill="#000000">outgoing&#45;rpc&#45;responses</text>
</g>
<!-- http&#45;client&#45;&gt;outgoing&#45;rpc&#45;responses -->
<g id="edge14" class="edge">
<title>http&#45;client&#45;&gt;outgoing&#45;rpc&#45;responses</title>
<path fill="none" stroke="#000000" d="M761.6584,-215.8314C759.1716,-208.0463 756.2092,-198.7729 753.4498,-190.1347"/>
<polygon fill="#000000" stroke="#000000" points="756.7214,-188.874 750.3443,-180.4133 750.0533,-191.0041 756.7214,-188.874"/>
</g>
<!-- finalizer -->
<g id="node4" class="node">
<title>finalizer</title>
<polygon fill="none" stroke="#000000" points="567.3316,-396 505.593,-396 505.593,-360 567.3316,-360 567.3316,-396"/>
<text text-anchor="middle" x="536.4623" y="-373.8" font-family="Times,serif" font-size="14.00" fill="#000000">finalizer</text>
</g>
<!-- finalizer&#45;&gt;outgoing&#45;rpc&#45;requests -->
<g id="edge17" class="edge">
<title>finalizer&#45;&gt;outgoing&#45;rpc&#45;requests</title>
<path fill="none" stroke="#000000" d="M567.5143,-360.9774C581.4675,-351.7926 596.9098,-339.2064 606.4623,-324 618.0912,-305.4883 622.7162,-281.039 624.5026,-262.2958"/>
<polygon fill="#000000" stroke="#000000" points="627.9964,-262.5072 625.2438,-252.2762 621.0155,-261.9907 627.9964,-262.5072"/>
</g>
<!-- quoter -->
<g id="node5" class="node">
<title>quoter</title>
<polygon fill="none" stroke="#000000" points="555.4623,-108 501.4623,-108 501.4623,-72 555.4623,-72 555.4623,-108"/>
<text text-anchor="middle" x="528.4623" y="-85.8" font-family="Times,serif" font-size="14.00" fill="#000000">quoter</text>
</g>
<!-- incoming&#45;rpc&#45;responses -->
<g id="node11" class="node">
<title>incoming&#45;rpc&#45;responses</title>
<ellipse fill="none" stroke="#000000" cx="348.4623" cy="-18" rx="95.1568" ry="18"/>
<text text-anchor="middle" x="348.4623" y="-13.8" font-family="Times,serif" font-size="14.00" fill="#000000">incoming&#45;rpc&#45;responses</text>
</g>
<!-- quoter&#45;&gt;incoming&#45;rpc&#45;responses -->
<g id="edge16" class="edge">
<title>quoter&#45;&gt;incoming&#45;rpc&#45;responses</title>
<path fill="none" stroke="#000000" d="M501.1242,-79.0647C474.0914,-68.2516 432.0854,-51.4492 398.9739,-38.2046"/>
<polygon fill="#000000" stroke="#000000" points="400.036,-34.8599 389.4513,-34.3956 397.4362,-41.3593 400.036,-34.8599"/>
</g>
<!-- quoter&#45;&gt;outgoing&#45;rpc&#45;requests -->
<g id="edge13" class="edge">
<title>quoter&#45;&gt;outgoing&#45;rpc&#45;requests</title>
<path fill="none" stroke="#000000" d="M540.7037,-108.1727C557.6317,-133.3029 588.2945,-178.8231 607.7298,-207.6754"/>
<polygon fill="#000000" stroke="#000000" points="604.8836,-209.715 613.3733,-216.0535 610.6893,-205.8042 604.8836,-209.715"/>
</g>
<!-- broadcaster -->
<g id="node6" class="node">
<title>broadcaster</title>
<polygon fill="none" stroke="#000000" points="597.4813,-324 517.4433,-324 517.4433,-288 597.4813,-288 597.4813,-324"/>
<text text-anchor="middle" x="557.4623" y="-301.8" font-family="Times,serif" font-size="14.00" fill="#000000">broadcaster</text>
</g>
<!-- broadcaster&#45;&gt;outgoing&#45;rpc&#45;requests -->
<g id="edge18" class="edge">
<title>broadcaster&#45;&gt;outgoing&#45;rpc&#45;requests</title>
<path fill="none" stroke="#000000" d="M574.6216,-287.8314C582.8176,-279.1533 592.7602,-268.6257 601.6716,-259.1902"/>
<polygon fill="#000000" stroke="#000000" points="604.2224,-261.5868 608.5441,-251.9134 599.1333,-256.7804 604.2224,-261.5868"/>
</g>
<!-- incoming&#45;send&#45;transfer&#45;&gt;connector -->
<g id="edge2" class="edge">
<title>incoming&#45;send&#45;transfer&#45;&gt;connector</title>
<path fill="none" stroke="#000000" d="M431.1381,-234C433.5986,-234 436.0591,-234 438.5196,-234"/>
<polygon fill="#000000" stroke="#000000" points="438.6351,-237.5001 448.6351,-234 438.6351,-230.5001 438.6351,-237.5001"/>
</g>
<!-- incoming&#45;send&#45;transfer&#45;&gt;finalizer -->
<g id="edge10" class="edge">
<title>incoming&#45;send&#45;transfer&#45;&gt;finalizer</title>
<path fill="none" stroke="#000000" d="M362.4089,-251.4157C397.5401,-276.9657 463.1888,-324.7102 503.0498,-353.7"/>
<polygon fill="#000000" stroke="#000000" points="501.2395,-356.7111 511.3855,-359.7623 505.3567,-351.05 501.2395,-356.7111"/>
</g>
<!-- incoming&#45;send&#45;request&#45;&gt;quoter -->
<g id="edge4" class="edge">
<title>incoming&#45;send&#45;request&#45;&gt;quoter</title>
<path fill="none" stroke="#000000" d="M475.0129,-144.2022C483.5672,-135.5275 494.0084,-124.9391 503.3852,-115.4304"/>
<polygon fill="#000000" stroke="#000000" points="506.0911,-117.671 510.6205,-108.0931 501.1069,-112.756 506.0911,-117.671"/>
</g>
<!-- incoming&#45;fulfill&#45;condition&#45;&gt;finalizer -->
<g id="edge6" class="edge">
<title>incoming&#45;fulfill&#45;condition&#45;&gt;finalizer</title>
<path fill="none" stroke="#000000" d="M146.3086,-394.382C168.9877,-401.9955 197.3279,-410.1947 223.4623,-414 281.5168,-422.4531 431.7154,-432.2772 487.4623,-414 495.2204,-411.4564 502.7634,-407.1638 509.5131,-402.4111"/>
<polygon fill="#000000" stroke="#000000" points="511.7697,-405.0917 517.5948,-396.242 507.5223,-399.5275 511.7697,-405.0917"/>
</g>
<!-- incoming&#45;reject&#45;incoming&#45;transfer&#45;&gt;finalizer -->
<g id="edge8" class="edge">
<title>incoming&#45;reject&#45;incoming&#45;transfer&#45;&gt;finalizer</title>
<path fill="none" stroke="#000000" d="M488.0307,-378C490.4783,-378 492.9259,-378 495.3735,-378"/>
<polygon fill="#000000" stroke="#000000" points="495.4358,-381.5001 505.4358,-378 495.4358,-374.5001 495.4358,-381.5001"/>
</g>
<!-- incoming&#45;rpc&#45;responses&#45;&gt;rpc&#45;server -->
<g id="edge9" class="edge">
<title>incoming&#45;rpc&#45;responses&#45;&gt;rpc&#45;server</title>
<path fill="none" stroke="#000000" d="M335.4944,-35.8413C307.8514,-73.8723 243.0148,-163.0743 210.6066,-207.6613"/>
<polygon fill="#000000" stroke="#000000" points="207.6264,-205.8086 204.578,-215.9555 213.2887,-209.9243 207.6264,-205.8086"/>
</g>
<!-- outgoing&#45;rpc&#45;requests&#45;&gt;http&#45;client -->
<g id="edge12" class="edge">
<title>outgoing&#45;rpc&#45;requests&#45;&gt;http&#45;client</title>
<path fill="none" stroke="#000000" d="M713.3803,-234C715.8164,-234 718.2524,-234 720.6885,-234"/>
<polygon fill="#000000" stroke="#000000" points="720.7035,-237.5001 730.7034,-234 720.7034,-230.5001 720.7035,-237.5001"/>
</g>
<!-- outgoing&#45;rpc&#45;responses&#45;&gt;quoter -->
<g id="edge15" class="edge">
<title>outgoing&#45;rpc&#45;responses&#45;&gt;quoter</title>
<path fill="none" stroke="#000000" d="M697.5935,-146.3771C657.8986,-133.1454 601.7756,-114.4378 565.2529,-102.2635"/>
<polygon fill="#000000" stroke="#000000" points="566.0949,-98.8549 555.5013,-99.013 563.8813,-105.4957 566.0949,-98.8549"/>
</g>
</g>
</svg>
