<?xml version="1.0" encoding="UTF-8" standalone="no"?>
<!DOCTYPE svg PUBLIC "-//W3C//DTD SVG 1.1//EN"
 "http://www.w3.org/Graphics/SVG/1.1/DTD/svg11.dtd">
<!-- Generated by graphviz version 2.40.1 (20161225.0304)
 -->
<!-- Title: streams Pages: 1 -->
<svg width="883pt" height="361pt"
 viewBox="0.00 0.00 882.58 360.64" xmlns="http://www.w3.org/2000/svg" xmlns:xlink="http://www.w3.org/1999/xlink">
<g id="graph0" class="graph" transform="scale(1 1) rotate(0) translate(4 356.6379)">
<title>streams</title>
<polygon fill="#ffffff" stroke="transparent" points="-4,4 -4,-356.6379 878.5803,-356.6379 878.5803,4 -4,4"/>
<!-- rpc&#45;server -->
<g id="node1" class="node">
<title>rpc&#45;server</title>
<polygon fill="none" stroke="#000000" points="264.7011,-252 192.2236,-252 192.2236,-216 264.7011,-216 264.7011,-252"/>
<text text-anchor="middle" x="228.4623" y="-229.8" font-family="Times,serif" font-size="14.00" fill="#000000">rpc&#45;server</text>
</g>
<!-- incoming&#45;send&#45;transfer -->
<g id="node6" class="node">
<title>incoming&#45;send&#45;transfer</title>
<ellipse fill="none" stroke="#000000" cx="375.4623" cy="-234" rx="92.7342" ry="18"/>
<text text-anchor="middle" x="375.4623" y="-229.8" font-family="Times,serif" font-size="14.00" fill="#000000">incoming&#45;send&#45;transfer</text>
</g>
<!-- rpc&#45;server&#45;&gt;incoming&#45;send&#45;transfer -->
<g id="edge1" class="edge">
<title>rpc&#45;server&#45;&gt;incoming&#45;send&#45;transfer</title>
<path fill="none" stroke="#000000" d="M264.9252,-234C267.4147,-234 269.9042,-234 272.3937,-234"/>
<polygon fill="#000000" stroke="#000000" points="272.6284,-237.5001 282.6284,-234 272.6284,-230.5001 272.6284,-237.5001"/>
</g>
<!-- incoming&#45;send&#45;request -->
<g id="node7" class="node">
<title>incoming&#45;send&#45;request</title>
<ellipse fill="none" stroke="#000000" cx="494.4623" cy="-162" rx="91.298" ry="18"/>
<text text-anchor="middle" x="494.4623" y="-157.8" font-family="Times,serif" font-size="14.00" fill="#000000">incoming&#45;send&#45;request</text>
</g>
<!-- rpc&#45;server&#45;&gt;incoming&#45;send&#45;request -->
<g id="edge3" class="edge">
<title>rpc&#45;server&#45;&gt;incoming&#45;send&#45;request</title>
<path fill="none" stroke="#000000" d="M265.1454,-218.8376C267.9434,-217.8315 270.7379,-216.8729 273.4623,-216 321.9665,-200.4587 377.6821,-186.8724 421.0363,-177.2151"/>
<polygon fill="#000000" stroke="#000000" points="421.9226,-180.6038 430.9332,-175.0308 420.4139,-173.7683 421.9226,-180.6038"/>
</g>
<!-- incoming&#45;fulfill&#45;condition -->
<g id="node8" class="node">
<title>incoming&#45;fulfill&#45;condition</title>
<ellipse fill="none" stroke="#000000" cx="102.4623" cy="-306" rx="102.4246" ry="18"/>
<text text-anchor="middle" x="102.4623" y="-301.8" font-family="Times,serif" font-size="14.00" fill="#000000">incoming&#45;fulfill&#45;condition</text>
</g>
<!-- rpc&#45;server&#45;&gt;incoming&#45;fulfill&#45;condition -->
<g id="edge5" class="edge">
<title>rpc&#45;server&#45;&gt;incoming&#45;fulfill&#45;condition</title>
<path fill="none" stroke="#000000" d="M196.7701,-252.1098C180.0326,-261.6741 159.3419,-273.4974 141.6092,-283.6303"/>
<polygon fill="#000000" stroke="#000000" points="139.5884,-280.7539 132.6425,-288.7542 143.0614,-286.8316 139.5884,-280.7539"/>
</g>
<!-- incoming&#45;reject&#45;incoming&#45;transfer -->
<g id="node9" class="node">
<title>incoming&#45;reject&#45;incoming&#45;transfer</title>
<ellipse fill="none" stroke="#000000" cx="355.4623" cy="-306" rx="132.2822" ry="18"/>
<text text-anchor="middle" x="355.4623" y="-301.8" font-family="Times,serif" font-size="14.00" fill="#000000">incoming&#45;reject&#45;incoming&#45;transfer</text>
</g>
<!-- rpc&#45;server&#45;&gt;incoming&#45;reject&#45;incoming&#45;transfer -->
<g id="edge7" class="edge">
<title>rpc&#45;server&#45;&gt;incoming&#45;reject&#45;incoming&#45;transfer</title>
<path fill="none" stroke="#000000" d="M260.5354,-252.1832C277.2031,-261.6326 297.7334,-273.2718 315.4326,-283.306"/>
<polygon fill="#000000" stroke="#000000" points="313.9692,-286.4997 324.3946,-288.3868 317.4215,-280.4102 313.9692,-286.4997"/>
</g>
<!-- connector -->
<g id="node2" class="node">
<title>connector</title>
<polygon fill="none" stroke="#000000" points="557.1559,-252 485.7687,-252 485.7687,-216 557.1559,-216 557.1559,-252"/>
<text text-anchor="middle" x="521.4623" y="-229.8" font-family="Times,serif" font-size="14.00" fill="#000000">connector</text>
</g>
<!-- outgoing&#45;rpc&#45;requests -->
<g id="node11" class="node">
<title>outgoing&#45;rpc&#45;requests</title>
<ellipse fill="none" stroke="#000000" cx="662.4623" cy="-234" rx="87.9239" ry="18"/>
<text text-anchor="middle" x="662.4623" y="-229.8" font-family="Times,serif" font-size="14.00" fill="#000000">outgoing&#45;rpc&#45;requests</text>
</g>
<!-- connector&#45;&gt;outgoing&#45;rpc&#45;requests -->
<g id="edge11" class="edge">
<title>connector&#45;&gt;outgoing&#45;rpc&#45;requests</title>
<path fill="none" stroke="#000000" d="M557.2631,-234C559.6003,-234 561.9375,-234 564.2747,-234"/>
<polygon fill="#000000" stroke="#000000" points="564.5224,-237.5001 574.5223,-234 564.5223,-230.5001 564.5224,-237.5001"/>
</g>
<!-- http&#45;client -->
<g id="node3" class="node">
<title>http&#45;client</title>
<polygon fill="none" stroke="#000000" points="841.0018,-252 767.9228,-252 767.9228,-216 841.0018,-216 841.0018,-252"/>
<text text-anchor="middle" x="804.4623" y="-229.8" font-family="Times,serif" font-size="14.00" fill="#000000">http&#45;client</text>
</g>
<!-- outgoing&#45;rpc&#45;responses -->
<g id="node12" class="node">
<title>outgoing&#45;rpc&#45;responses</title>
<ellipse fill="none" stroke="#000000" cx="781.4623" cy="-162" rx="93.236" ry="18"/>
<text text-anchor="middle" x="781.4623" y="-157.8" font-family="Times,serif" font-size="14.00" fill="#000000">outgoing&#45;rpc&#45;responses</text>
</g>
<!-- http&#45;client&#45;&gt;outgoing&#45;rpc&#45;responses -->
<g id="edge14" class="edge">
<title>http&#45;client&#45;&gt;outgoing&#45;rpc&#45;responses</title>
<path fill="none" stroke="#000000" d="M798.6584,-215.8314C796.1716,-208.0463 793.2092,-198.7729 790.4498,-190.1347"/>
<polygon fill="#000000" stroke="#000000" points="793.7214,-188.874 787.3443,-180.4133 787.0533,-191.0041 793.7214,-188.874"/>
</g>
<!-- finalizer -->
<g id="node4" class="node">
<title>finalizer</title>
<polygon fill="none" stroke="#000000" points="567.3316,-324 505.593,-324 505.593,-288 567.3316,-288 567.3316,-324"/>
<text text-anchor="middle" x="536.4623" y="-301.8" font-family="Times,serif" font-size="14.00" fill="#000000">finalizer</text>
</g>
<!-- finalizer&#45;&gt;outgoing&#45;rpc&#45;requests -->
<g id="edge17" class="edge">
<title>finalizer&#45;&gt;outgoing&#45;rpc&#45;requests</title>
<path fill="none" stroke="#000000" d="M567.6084,-288.2022C584.4882,-278.5567 605.5081,-266.5453 623.4676,-256.2827"/>
<polygon fill="#000000" stroke="#000000" points="625.5962,-259.0975 632.5422,-251.0972 622.1232,-253.0198 625.5962,-259.0975"/>
</g>
<!-- quoter -->
<g id="node5" class="node">
<title>quoter</title>
<polygon fill="none" stroke="#000000" points="592.4623,-108 538.4623,-108 538.4623,-72 592.4623,-72 592.4623,-108"/>
<text text-anchor="middle" x="565.4623" y="-85.8" font-family="Times,serif" font-size="14.00" fill="#000000">quoter</text>
</g>
<!-- incoming&#45;rpc&#45;responses -->
<g id="node10" class="node">
<title>incoming&#45;rpc&#45;responses</title>
<ellipse fill="none" stroke="#000000" cx="385.4623" cy="-18" rx="95.1568" ry="18"/>
<text text-anchor="middle" x="385.4623" y="-13.8" font-family="Times,serif" font-size="14.00" fill="#000000">incoming&#45;rpc&#45;responses</text>
</g>
<!-- quoter&#45;&gt;incoming&#45;rpc&#45;responses -->
<g id="edge16" class="edge">
<title>quoter&#45;&gt;incoming&#45;rpc&#45;responses</title>
<path fill="none" stroke="#000000" d="M538.1242,-79.0647C511.0914,-68.2516 469.0854,-51.4492 435.9739,-38.2046"/>
<polygon fill="#000000" stroke="#000000" points="437.036,-34.8599 426.4513,-34.3956 434.4362,-41.3593 437.036,-34.8599"/>
</g>
<!-- quoter&#45;&gt;outgoing&#45;rpc&#45;requests -->
<g id="edge13" class="edge">
<title>quoter&#45;&gt;outgoing&#45;rpc&#45;requests</title>
<path fill="none" stroke="#000000" d="M577.7037,-108.1727C594.6317,-133.3029 625.2945,-178.8231 644.7298,-207.6754"/>
<polygon fill="#000000" stroke="#000000" points="641.8836,-209.715 650.3733,-216.0535 647.6893,-205.8042 641.8836,-209.715"/>
</g>
<!-- incoming&#45;send&#45;transfer&#45;&gt;connector -->
<g id="edge2" class="edge">
<title>incoming&#45;send&#45;transfer&#45;&gt;connector</title>
<path fill="none" stroke="#000000" d="M468.1381,-234C470.5986,-234 473.0591,-234 475.5196,-234"/>
<polygon fill="#000000" stroke="#000000" points="475.6351,-237.5001 485.6351,-234 475.6351,-230.5001 475.6351,-237.5001"/>
</g>
<!-- incoming&#45;send&#45;transfer&#45;&gt;finalizer -->
<g id="edge10" class="edge">
<title>incoming&#45;send&#45;transfer&#45;&gt;finalizer</title>
<path fill="none" stroke="#000000" d="M412.5457,-250.514C434.4402,-260.2721 462.9193,-272.9786 496.0052,-287.8006"/>
<polygon fill="#000000" stroke="#000000" points="494.9008,-291.141 505.4577,-292.0365 497.7634,-284.753 494.9008,-291.141"/>
</g>
<!-- incoming&#45;send&#45;request&#45;&gt;quoter -->
<g id="edge4" class="edge">
<title>incoming&#45;send&#45;request&#45;&gt;quoter</title>
<path fill="none" stroke="#000000" d="M512.0129,-144.2022C520.5672,-135.5275 531.0084,-124.9391 540.3852,-115.4304"/>
<polygon fill="#000000" stroke="#000000" points="543.0911,-117.671 547.6205,-108.0931 538.1069,-112.756 543.0911,-117.671"/>
</g>
<!-- incoming&#45;fulfill&#45;condition&#45;&gt;finalizer -->
<g id="edge6" class="edge">
<title>incoming&#45;fulfill&#45;condition&#45;&gt;finalizer</title>
<path fill="none" stroke="#000000" d="M146.3086,-322.382C168.9877,-329.9955 197.3279,-338.1947 223.4623,-342 281.5168,-350.4531 431.7154,-360.2772 487.4623,-342 495.2204,-339.4564 502.7634,-335.1638 509.5131,-330.4111"/>
<polygon fill="#000000" stroke="#000000" points="511.7697,-333.0917 517.5948,-324.242 507.5223,-327.5275 511.7697,-333.0917"/>
</g>
<!-- incoming&#45;reject&#45;incoming&#45;transfer&#45;&gt;finalizer -->
<g id="edge8" class="edge">
<title>incoming&#45;reject&#45;incoming&#45;transfer&#45;&gt;finalizer</title>
<path fill="none" stroke="#000000" d="M488.0307,-306C490.4783,-306 492.9259,-306 495.3735,-306"/>
<polygon fill="#000000" stroke="#000000" points="495.4358,-309.5001 505.4358,-306 495.4358,-302.5001 495.4358,-309.5001"/>
</g>
<!-- incoming&#45;rpc&#45;responses&#45;&gt;rpc&#45;server -->
<g id="edge9" class="edge">
<title>incoming&#45;rpc&#45;responses&#45;&gt;rpc&#45;server</title>
<path fill="none" stroke="#000000" d="M372.4944,-35.8413C344.8514,-73.8723 280.0148,-163.0743 247.6066,-207.6613"/>
<polygon fill="#000000" stroke="#000000" points="244.6264,-205.8086 241.578,-215.9555 250.2887,-209.9243 244.6264,-205.8086"/>
</g>
<!-- outgoing&#45;rpc&#45;requests&#45;&gt;http&#45;client -->
<g id="edge12" class="edge">
<title>outgoing&#45;rpc&#45;requests&#45;&gt;http&#45;client</title>
<path fill="none" stroke="#000000" d="M750.3803,-234C752.8164,-234 755.2524,-234 757.6885,-234"/>
<polygon fill="#000000" stroke="#000000" points="757.7035,-237.5001 767.7034,-234 757.7034,-230.5001 757.7035,-237.5001"/>
</g>
<!-- outgoing&#45;rpc&#45;responses&#45;&gt;quoter -->
<g id="edge15" class="edge">
<title>outgoing&#45;rpc&#45;responses&#45;&gt;quoter</title>
<path fill="none" stroke="#000000" d="M734.5935,-146.3771C694.8986,-133.1454 638.7756,-114.4378 602.2529,-102.2635"/>
<polygon fill="#000000" stroke="#000000" points="603.0949,-98.8549 592.5013,-99.013 600.8813,-105.4957 603.0949,-98.8549"/>
</g>
</g>
</svg>
